<svg xmlns="http://www.w3.org/2000/svg"  viewBox="0 0 80 80" width="30px" height="30px" baseProfile="basic"><path fill="#f78f8f" d="M40,63.441l-23.5,11.75V4.5h47v70.691L40,63.441z"/><path fill="#c74343" d="M63,5v69.382L40.447,63.106L40,62.882l-0.447,0.224L17,74.382V5H63 M64,4H16v72l24-12l24,12V4L64,4z"/><path fill="#bae0bd" d="M62,53.5c-9.6,0-17.5-7.9-17.5-17.5S52.4,18.5,62,18.5S79.5,26.4,79.5,36S71.6,53.5,62,53.5z"/><path fill="#5e9c76" d="M62,19c9.4,0,17,7.6,17,17s-7.6,17-17,17s-17-7.6-17-17S52.6,19,62,19 M62,18c-9.9,0-18,8.1-18,18 s8.1,18,18,18s18-8.1,18-18S71.9,18,62,18L62,18z"/><path fill="#fff" d="M52,34h20v4H52V34z"/><path fill="#fff" d="M64,26v20h-4V26H64z"/></svg>